<?xml version="1.0" encoding="UTF-8"?>
<svg xmlns="http://www.w3.org/2000/svg" xmlns:xlink="http://www.w3.org/1999/xlink" viewBox="0 0 24 24" width="24px" height="24px">
<g id="surface7024902">
<path style=" stroke:none;fill-rule:nonzero;fill:rgb(65.882355%,69.803923%,81.960785%);fill-opacity:1;" d="M 3 12.898438 C 3 12.898438 3.101562 12.898438 3 12.898438 C 3.101562 12.898438 3 12.898438 3 12.898438 Z M 12 2 C 6.5 2 2 6.5 2 12 C 2 17 5.699219 21.199219 10.601562 21.898438 L 10.601562 14.398438 L 8.398438 14.398438 L 8.398438 12 L 10.699219 12 L 10.699219 10.398438 C 10.699219 7.800781 11.898438 6.699219 14.101562 6.699219 C 15.101562 6.699219 15.601562 6.800781 15.898438 6.800781 L 15.898438 8.800781 L 14.398438 8.800781 C 13.5 8.800781 13.199219 9.699219 13.199219 10.699219 L 13.199219 12 L 15.898438 12 L 15.5 14.398438 L 13.199219 14.398438 L 13.199219 21.898438 C 18.101562 21.300781 22 17.101562 22 12 C 22 6.5 17.5 2 12 2 Z M 12 2 "/>
</g>
</svg>
